<?xml version="1.0" encoding="UTF-8"?>
<svg width="94px" height="28px" viewBox="0 0 94 28" version="1.1" xmlns="http://www.w3.org/2000/svg" xmlns:xlink="http://www.w3.org/1999/xlink">
    <!-- Generator: Sketch 64 (93537) - https://sketch.com -->
    <title>Combined Shape@1.5x</title>
    <desc>Created with Sketch.</desc>
    <g id="Symbols" stroke="none" stroke-width="1" fill="none" fill-rule="evenodd">
        <g id="Desktop-Header/Dark/After-Login" transform="translate(-24.000000, -16.000000)" fill="#EDC848">
            <path d="M36.5511435,38.3676822 C37.0509979,38.9240632 37.3383726,39.5736367 37.3383726,40.2673101 C37.3383726,42.3286381 34.8041497,44 31.6782569,44 C28.5520867,44 26.0178638,42.3286381 26.0178638,40.2673101 C26.0178638,39.5736367 26.3052385,38.9240632 26.8053702,38.3676822 C27.7912096,39.4649122 29.6042219,40.2004668 31.6782569,40.2004668 C33.7520145,40.2004668 35.5653042,39.4649122 36.5511435,38.3676822 Z M75.2941568,18.4136563 L75.2941568,35.9116455 L69.8739823,35.9116455 L69.8739823,35.862553 C71.4642515,35.095657 72.7186031,33.2437347 73.2278887,30.9044936 L73.226,30.9066563 L73.1435883,31.1538128 C72.1118118,34.0400499 69.4016983,36.1280328 66.1883937,36.2418048 L65.9117627,36.2466945 C63.803054,36.2466945 61.8990583,35.3907663 60.5123923,34.0142364 C61.1032302,33.15498 61.5575928,32.0946387 61.8166738,30.9044936 L61.815,30.9066563 L61.6972342,31.2499061 C61.3999965,32.0470886 60.9741471,32.7816129 60.4450055,33.4282926 L60.2119804,33.6999893 C58.8006269,35.2576343 56.7687549,36.2466945 54.5005478,36.2466945 C52.3918392,36.2466945 50.4878434,35.3907663 49.1009001,34.0142364 C49.6920154,33.15498 50.146378,32.0946387 50.405459,30.9044936 L50.404,30.9066563 L50.2860921,31.2499061 C49.9889795,32.0470886 49.562957,32.7816129 49.033605,33.4282926 L48.8004882,33.6999893 C47.3894121,35.2576343 45.3575401,36.2466945 43.089333,36.2466945 C40.9806244,36.2466945 39.0766286,35.3907663 37.6899627,34.0142364 C38.2808005,33.15498 38.7351632,32.0946387 38.9939668,30.9044936 L38.992,30.9066563 L38.8746098,31.2499061 C38.5775425,32.0470886 38.1517144,32.7816129 37.6225755,33.4282926 L37.3895508,33.6999893 C35.9781973,35.2573569 33.9463253,36.2466945 31.6781182,36.2466945 C27.4374003,36.2466945 24,32.8093914 24,28.5691356 C24,24.3288797 27.4374003,20.8915766 31.6781182,20.8915766 C33.8477076,20.8915766 35.801066,21.796755 37.1968758,23.2435002 L37.3837256,23.4441063 C38.0270207,24.1489666 38.5353064,24.9778643 38.8750736,25.8889179 L38.991,26.226 L38.9009994,25.842513 C38.6662589,24.9399217 38.3171887,24.1205143 37.881588,23.4180902 L37.6896853,23.1243121 C39.0766286,21.7475048 40.9806244,20.8915766 43.089333,20.8915766 C45.2589224,20.8915766 47.2122808,21.796755 48.6080907,23.2435002 L48.7949404,23.4441063 C49.437989,24.14872 49.9464664,24.9775903 50.2862793,25.8888357 L50.402,26.226 L50.3122142,25.84244 C50.0774737,24.9397208 49.7284035,24.1204652 49.2928029,23.4180811 L49.1009001,23.1243121 C50.4878434,21.7475048 52.3918392,20.8915766 54.5005478,20.8915766 C56.7687549,20.8915766 58.8006269,21.8809142 60.2061553,23.4441063 C60.208097,23.4421648 60.2100387,23.4402233 60.211703,23.4382818 C60.8500668,24.1480729 61.3578045,24.9777376 61.6975109,25.8889007 L61.813,26.226 L61.7233559,25.84244 C61.4884877,24.9397208 61.1395692,24.1204652 60.7040085,23.4180811 L60.5121149,23.1243121 C61.8990583,21.7475048 63.803054,20.8915766 65.9117627,20.8915766 C69.2457345,20.8915766 72.0826096,23.016545 73.1436102,25.9850331 L73.224,26.226 L73.1478991,25.8946652 C72.7500929,24.3265108 72.0121139,23.0003454 71.0655289,22.1081091 L70.8595443,21.9236274 L70.8595443,18.4136563 L75.2941568,18.4136563 Z M112.777881,21.3299971 C113.305752,21.3299971 113.805606,21.3968405 114.275225,21.5299725 C114.745676,21.6636593 115.187002,21.8647442 115.597814,22.1335045 C116.008904,22.4022648 116.367013,22.7181761 116.670476,23.0798515 C116.973662,23.4415269 117.223589,23.8497985 117.418316,24.3038343 C117.612765,24.7550965 117.759227,25.3317247 117.855758,26.0326094 C117.951734,26.7290565 118,27.5494827 118,28.4925014 L118,35.7074265 L115.997531,35.7074265 L115.997531,29.0125485 C115.997531,28.2240184 115.980611,27.5655695 115.947047,27.0394206 C115.913482,26.5138263 115.863553,26.1199773 115.797811,25.8600925 C115.691572,25.4152095 115.541782,25.026353 115.34761,24.694355 C115.155657,24.3642984 114.919044,24.0877721 114.637772,23.8650532 C114.357609,23.645108 114.033342,23.4798024 113.666357,23.3691363 C113.29632,23.2576383 112.881347,23.2018892 112.422546,23.2018892 C111.371798,23.2018892 110.430063,23.5480325 109.60289,24.2403192 C109.185143,24.5861852 108.837852,24.9742096 108.563238,25.4030058 C108.289178,25.8309698 108.085852,26.3016471 107.954924,26.8130961 C107.872263,27.1486998 107.809295,27.6274204 107.766855,28.2487033 C107.724692,28.8688768 107.703333,29.6305031 107.703333,30.5333048 L107.703333,35.7074265 L105.701141,35.7074265 L105.701141,21.6675423 L107.703333,21.6675423 L107.703333,23.9202476 C108.00208,23.5521929 108.313865,23.2226911 108.638133,22.9328515 C109.038682,22.5747818 109.459203,22.2768988 109.8972,22.0416989 C110.339357,21.8056668 110.800655,21.627048 111.28026,21.5086159 C111.760419,21.3901839 112.260551,21.3299971 112.777881,21.3299971 Z M79.0443683,21.6675423 L83.1818976,31.4993442 L87.5105477,21.6675423 L87.9920944,21.6675423 L92.3304531,31.5018405 L96.5542503,21.6675423 L98.6330009,21.6675423 C96.6069541,26.344915 94.5723083,31.0225651 92.5645691,35.7074265 L92.0702625,35.7074265 L87.7557593,25.9973849 L83.4284961,35.7074265 L82.9203201,35.7074265 C80.9247861,31.0308858 78.9445084,26.3476886 76.957296,21.6675423 L79.0443683,21.6675423 Z M102.238499,21.6675423 L102.238499,35.7074265 L100.236307,35.7074265 L100.236307,21.6675423 L102.238499,21.6675423 Z M65.9117627,24.836723 C63.8499327,24.836723 62.1789434,26.5075303 62.1789434,28.5691356 C62.1789434,30.6310182 63.8499327,32.3015481 65.9117627,32.3015481 C67.9735926,32.3015481 69.6448593,30.6310182 69.6448593,28.5691356 C69.6448593,26.5075303 67.9735926,24.836723 65.9117627,24.836723 Z M54.5005478,24.836723 C52.4387179,24.836723 50.7677286,26.5075303 50.7677286,28.5691356 C50.7677286,30.6310182 52.4387179,32.3015481 54.5005478,32.3015481 C56.5623778,32.3015481 58.2336445,30.6310182 58.2336445,28.5691356 C58.2336445,26.5075303 56.5623778,24.836723 54.5005478,24.836723 Z M43.089333,24.836723 C41.0277805,24.836723 39.3565138,26.5075303 39.3565138,28.5691356 C39.3565138,30.6310182 41.0277805,32.3015481 43.089333,32.3015481 C45.151163,32.3015481 46.8224296,30.6310182 46.8224296,28.5691356 C46.8224296,26.5075303 45.151163,24.836723 43.089333,24.836723 Z M31.6781182,24.836723 C29.6162883,24.836723 27.945299,26.5075303 27.945299,28.5691356 C27.945299,30.6310182 29.6162883,32.3015481 31.6781182,32.3015481 C33.7399481,32.3015481 35.4112148,30.6310182 35.4112148,28.5691356 C35.4112148,26.5075303 33.7399481,24.836723 31.6781182,24.836723 Z M101.232965,16 C101.449883,16 101.651267,16.0393849 101.837672,16.1167679 C102.0238,16.1952603 102.194117,16.3123056 102.34779,16.4684584 C102.500354,16.6218376 102.616302,16.7932451 102.693416,16.9810168 C102.771917,17.1698979 102.810474,17.3737563 102.810474,17.5900959 C102.810474,17.8050487 102.771362,18.0069657 102.693416,18.1936279 C102.615747,18.3800128 102.500076,18.5511429 102.346958,18.7039674 C102.193284,18.8595655 102.0238,18.9771655 101.83795,19.0548258 C101.651822,19.1327636 101.449883,19.1715937 101.232965,19.1715937 C101.018266,19.1715937 100.818269,19.1327636 100.634083,19.0545485 C100.450174,18.9766108 100.281244,18.8592881 100.127571,18.7039674 C99.9750073,18.5511429 99.8590588,18.3800128 99.78139,18.1936279 C99.7037212,18.0069657 99.6640546,17.8050487 99.6640546,17.5900959 C99.6640546,17.3737563 99.7031664,17.1698979 99.7811126,16.9810168 C99.8587814,16.7932451 99.9744525,16.6218376 100.127016,16.4684584 C100.28069,16.3128603 100.449619,16.1955377 100.634638,16.1173226 C100.819101,16.0393849 101.018543,16 101.232965,16 Z" id="Combined-Shape"></path>
        </g>
    </g>
</svg>